<svg xmlns="http://www.w3.org/2000/svg" width="1200" height="630" viewBox="0 0 1200 630" role="img" aria-labelledby="title desc">
  <title id="title">ECG Lab social preview</title>
  <desc id="desc">ECG Lab social sharing image with a dark app icon and educational ECG simulator title.</desc>
  <defs>
    <linearGradient id="og-bg" x1="0" y1="0" x2="1200" y2="630" gradientUnits="userSpaceOnUse">
      <stop stop-color="#020617" />
      <stop offset="0.62" stop-color="#0f172a" />
      <stop offset="1" stop-color="#111827" />
    </linearGradient>
    <linearGradient id="logo-bg" x1="128" y1="128" x2="430" y2="430" gradientUnits="userSpaceOnUse">
      <stop stop-color="#111827" />
      <stop offset="1" stop-color="#020617" />
    </linearGradient>
    <filter id="og-shadow" x="-20%" y="-20%" width="140%" height="140%">
      <feDropShadow dx="0" dy="28" stdDeviation="32" flood-color="#000000" flood-opacity="0.36" />
    </filter>
  </defs>
  <rect width="1200" height="630" fill="url(#og-bg)" />
  <g opacity="0.12">
    <path d="M0 462H118L158 410L214 500L278 310L338 462H1200" fill="none" stroke="#22d3ee" stroke-width="8" />
    <path d="M0 490H154L190 452L254 540L320 378L376 490H1200" fill="none" stroke="#ffffff" stroke-width="3" opacity="0.6" />
  </g>
  <rect x="110" y="116" width="300" height="300" rx="72" fill="url(#logo-bg)" filter="url(#og-shadow)" />
  <path
    d="M158 272H212L236 224L272 328L312 184L346 272H394"
    fill="none"
    stroke="#22d3ee"
    stroke-linecap="round"
    stroke-linejoin="round"
    stroke-opacity="0.24"
    stroke-width="34"
  />
  <path
    d="M158 272H212L236 224L272 328L312 184L346 272H394"
    fill="none"
    stroke="#ffffff"
    stroke-linecap="round"
    stroke-linejoin="round"
    stroke-width="24"
  />
  <g font-family="Inter, ui-sans-serif, system-ui, -apple-system, BlinkMacSystemFont, 'Segoe UI', sans-serif">
    <text x="474" y="230" fill="#ffffff" font-size="92" font-weight="800" letter-spacing="-2">ECG Lab</text>
    <text x="478" y="302" fill="#cbd5e1" font-size="34" font-weight="600">リアルタイム心電図シミュレーター</text>
    <text x="478" y="374" fill="#67e8f9" font-size="30" font-weight="700">Learning / Quiz / Compare / Conduction</text>
    <text x="478" y="436" fill="#94a3b8" font-size="24" font-weight="500">Lead II rhythm learning simulator</text>
  </g>
</svg>
